Coordinates
version=1
nRows=16
nColumns=22
inDegrees=yes

Units are S.I. units (second, meters, Newtons, ...)
If the header above contains a line with 'inDegrees', this indicates whether rotational values are in degrees (yes) or radians (no).

endheader
time	pelvis_tilt	pelvis_list	pelvis_rotation	pelvis_tx	pelvis_ty	pelvis_tz	hip_flexion_r	hip_adduction_r	hip_rotation_r	knee_angle_r	ankle_angle_r	subtalar_angle_r	hip_flexion_l	hip_adduction_l	hip_rotation_l	knee_angle_l	ankle_angle_l	subtalar_angle_l	lumbar_extension	lumbar_bending	lumbar_rotation
      0.01000000	     -5.59542809	      2.85073308	    188.00980813	      0.07832428	      0.95530568	      1.17262558	     -5.41125141	      6.06152123	    -10.63595366	     -5.54581815	     10.44862807	      7.14726825	     -1.21523646	     -4.88014314	    -13.02510950	    -15.74924251	     19.65320412	     -6.78813540	    -11.08692537	      4.87146410	     -6.85732251
      0.02000000	     -5.59095021	      2.85170171	    188.01040237	      0.07822818	      0.95528591	      1.17264302	     -5.41171021	      6.06104066	    -10.63577603	     -5.54607163	     10.44877721	      7.14739568	     -1.21710717	     -4.88017000	    -13.02519256	    -15.75003558	     19.65329192	     -6.78809980	    -11.08855621	      4.87112805	     -6.85752304
      0.03000000	     -5.58017743	      2.83674671	    188.00650774	      0.07808524	      0.95525956	      1.17266663	     -5.41513427	      6.04221678	    -10.61655265	     -5.53725494	     10.48664278	      7.16833658	     -1.22792430	     -4.86076924	    -13.04495631	    -15.73151894	     19.67315685	     -6.78252097	    -11.07911676	      4.85089775	     -6.88405087
      0.04000000	     -5.57287903	      2.82440642	    187.99743745	      0.07794404	      0.95523982	      1.17268028	     -5.41683496	      6.02567872	    -10.59396257	     -5.53790567	     10.55634876	      7.21218047	     -1.24040135	     -4.84419708	    -13.05576766	    -15.71838387	     19.68676444	     -6.77682764	    -11.07888774	      4.83105850	     -6.88122226
      0.05000000	     -5.56548490	      2.82129068	    187.98688111	      0.07779673	      0.95522471	      1.17270484	     -5.40994502	      6.01599833	    -10.58119536	     -5.55108415	     10.60802290	      7.26123482	     -1.25302034	     -4.83766999	    -13.07678988	    -15.70462216	     19.69614494	     -6.77384533	    -11.07698815	      4.82596315	     -6.89170906
      0.06000000	     -5.55427682	      2.81460763	    187.97303141	      0.07765564	      0.95520323	      1.17271750	     -5.40021062	      6.00238914	    -10.55871244	     -5.56139629	     10.68688774	      7.33516814	     -1.25076495	     -4.82849957	    -13.08494773	    -15.71542909	     19.72193615	     -6.76556424	    -11.07486914	      4.81203524	     -6.87931445
      0.07000000	     -5.53192434	      2.82029646	    187.95209895	      0.07749902	      0.95516308	      1.17272275	     -5.36563316	      5.99694518	    -10.53924040	     -5.59707020	     10.76198589	      7.45318651	     -1.23454538	     -4.83284796	    -13.11196593	    -15.73070063	     19.75290954	     -6.75231279	    -11.05410531	      4.81017819	     -6.86957573
      0.08000000	     -5.52539828	      2.82151105	    187.94105251	      0.07737251	      0.95515496	      1.17275903	     -5.35165527	      5.98877544	    -10.50791092	     -5.62648780	     10.77569037	      7.47398799	     -1.22650508	     -4.83199483	    -13.10202340	    -15.75782766	     19.76982073	     -6.74584707	    -11.06134680	      4.81180808	     -6.88265846
      0.09000000	     -5.48130364	      2.83408038	    187.91433080	      0.07722317	      0.95506036	      1.17276632	     -5.29170135	      5.98483349	    -10.43691946	     -5.67558598	     10.83723316	      7.51370832	     -1.15787137	     -4.84365981	    -13.11827931	    -15.82961558	     19.85170371	     -6.72549944	    -11.01713927	      4.81310505	     -6.86023091
      0.10000000	     -5.42823405	      2.84540572	    187.89411160	      0.07711018	      0.95493946	      1.17279043	     -5.21403685	      5.97356949	    -10.35831463	     -5.74969599	     10.78551756	      7.41943464	     -1.05144687	     -4.85540871	    -13.11467853	    -15.94802725	     19.92320522	     -6.71724505	    -10.97140564	      4.81253635	     -6.84679815
      0.11000000	     -5.36659112	      2.85947095	    187.88741060	      0.07701121	      0.95476825	      1.17284737	     -5.12425875	      5.96071454	    -10.25816517	     -5.84935551	     10.74208552	      7.00208109	     -0.90281598	     -4.87100828	    -13.08096468	    -16.12297702	     19.99967497	     -6.74095936	    -10.91925103	      4.81655397	     -6.84775775
      0.12000000	     -5.30900884	      2.85952216	    187.87807004	      0.07689146	      0.95457584	      1.17292452	     -5.05311164	      5.92845294	    -10.10811261	     -5.95184608	     10.58001254	      6.37522761	     -0.74552338	     -4.86935595	    -13.02927489	    -16.32919627	     20.11535356	     -6.80420937	    -10.87524540	      4.80316436	     -6.84612480
      0.13000000	     -5.24885600	      2.84929892	    187.87079440	      0.07675780	      0.95434978	      1.17303206	     -4.96803566	      5.87533318	     -9.96082923	     -6.10459195	     10.36343592	      5.46352697	     -0.57075277	     -4.85168216	    -12.94424721	    -16.56540166	     20.25618820	     -6.90918211	    -10.83246701	      4.77738064	     -6.86136554
      0.14000000	     -5.18623387	      2.84623468	    187.87814615	      0.07660328	      0.95408810	      1.17316201	     -4.89538250	      5.83070962	     -9.80207052	     -6.23919975	     10.08299234	      4.42672191	     -0.34987280	     -4.84604263	    -12.82890520	    -16.88241644	     20.42306542	     -7.06110858	    -10.78701558	      4.75372374	     -6.88024569
      0.15000000	     -5.13054196	      2.85686085	    187.89767213	      0.07643757	      0.95382329	      1.17334674	     -4.82282622	      5.80014963	     -9.66663455	     -6.38417672	      9.79575076	      3.36654738	     -0.10707973	     -4.85110968	    -12.66964697	    -17.24845810	     20.61258054	     -7.25812679	    -10.75349159	      4.75389485	     -6.90686916
      0.16000000	     -5.08776170	      2.88481180	    187.91616538	      0.07624326	      0.95357421	      1.17354040	     -4.74755657	      5.78989129	     -9.56895952	     -6.54747008	      9.57387656	      2.42357376	      0.13915753	     -4.87259819	    -12.47830080	    -17.64526006	     20.82309597	     -7.49765751	    -10.73708554	      4.77320196	     -6.93710542
